<svg width="210" height="90" viewBox="0 0 210 90" fill="none" xmlns="http://www.w3.org/2000/svg">
<rect x="0.5" y="0.5" width="209" height="89" rx="3.5" stroke="#AFB1B8"/>
<path d="M105.741 43.3533C105.323 42.7432 105.123 42.022 105.17 41.2962V38.3135C105.17 37.3992 105.359 36.7044 105.737 36.2291C106.116 35.7537 106.765 35.517 107.686 35.5191C108.551 35.5191 109.166 35.7213 109.529 36.1259C109.925 36.6421 110.118 37.2733 110.074 37.91V38.6109H108.526V37.9009C108.531 37.6685 108.516 37.4361 108.481 37.2061C108.459 37.0488 108.381 36.9033 108.26 36.7934C108.101 36.675 107.9 36.6175 107.699 36.6326C107.487 36.6176 107.276 36.6782 107.109 36.8025C106.974 36.9243 106.884 37.0838 106.853 37.2576C106.808 37.5011 106.788 37.7479 106.792 37.995V41.6147C106.767 41.964 106.836 42.3134 106.99 42.6312C107.067 42.7387 107.174 42.824 107.299 42.8775C107.424 42.9311 107.563 42.9508 107.699 42.9346C107.897 42.9501 108.094 42.8912 108.247 42.7708C108.373 42.6523 108.454 42.4976 108.478 42.3308C108.514 42.0907 108.53 41.8482 108.526 41.6056V40.8714H110.074V41.5419C110.117 42.2056 109.929 42.8644 109.538 43.4171C109.183 43.86 108.577 44.0815 107.686 44.0815C106.795 44.0815 106.122 43.8449 105.741 43.3533Z" fill="#AFB1B8"/>
<path d="M112.186 43.3837C111.795 42.9194 111.599 42.2428 111.599 41.3477V38.2104C111.599 37.3244 111.795 36.6538 112.186 36.1987C112.577 35.7436 113.231 35.517 114.147 35.5191C115.057 35.5191 115.708 35.7456 116.099 36.1987C116.49 36.6538 116.689 37.3244 116.689 38.2104V41.3477C116.689 42.2337 116.49 42.9134 116.092 43.3806C115.695 43.8479 115.048 44.0815 114.147 44.0815C113.247 44.0815 112.58 43.8449 112.186 43.3837ZM114.868 42.6312C115.008 42.3404 115.072 42.0219 115.054 41.7027V37.8615C115.072 37.5485 115.009 37.2361 114.871 36.9512C114.793 36.8414 114.683 36.7547 114.555 36.7011C114.427 36.6474 114.286 36.629 114.147 36.6478C114.008 36.6294 113.866 36.6481 113.738 36.7017C113.609 36.7553 113.499 36.8417 113.42 36.9512C113.279 37.2353 113.215 37.5481 113.234 37.8615V41.7209C113.214 42.0402 113.278 42.3591 113.42 42.6494C113.51 42.7473 113.621 42.8257 113.746 42.8795C113.871 42.9332 114.007 42.961 114.144 42.961C114.281 42.961 114.417 42.9332 114.542 42.8795C114.667 42.8257 114.778 42.7473 114.868 42.6494V42.6312Z" fill="#AFB1B8"/>
<path d="M118.551 35.6106H120.217L121.47 41.3992L122.752 35.6106H124.374L124.537 43.9658H123.339L123.211 38.159L121.973 43.9658H121.012L119.73 38.1378L119.611 43.9658H118.4L118.551 35.6106Z" fill="#AFB1B8"/>
<path d="M126.406 35.6106H129.002C130.497 35.6106 131.245 36.4014 131.245 37.9831C131.245 39.498 130.458 40.2544 128.883 40.2524H127.999V43.9658H126.396L126.406 35.6106ZM128.624 39.1814C128.782 39.2005 128.943 39.1867 129.095 39.1411C129.247 39.0956 129.387 39.0193 129.505 38.9175C129.689 38.6353 129.77 38.3039 129.736 37.974C129.744 37.7191 129.718 37.4642 129.659 37.2155C129.636 37.1324 129.596 37.0545 129.541 36.9863C129.486 36.918 129.417 36.8608 129.338 36.8181C129.116 36.7171 128.87 36.6711 128.624 36.6846H128.002V39.1814H128.624Z" fill="#AFB1B8"/>
<path d="M133.556 35.6106H135.277L137.043 43.9658H135.549L135.2 42.0393H133.665L133.306 43.9658H131.79L133.556 35.6106ZM135.027 41.0715L134.428 37.5644L133.828 41.0715H135.027Z" fill="#AFB1B8"/>
<path d="M138.469 35.6106H139.591L141.738 40.3768V35.6106H143.068V43.9658H142.001L139.841 38.9903V43.9658H138.466L138.469 35.6106Z" fill="#AFB1B8"/>
<path d="M146.183 40.7801L144.398 35.6223H145.901L146.991 38.9354L148.013 35.6223H149.484L147.722 40.7801V43.9658H146.183V40.7801Z" fill="#AFB1B8"/>
<path d="M108.215 47.6189V48.0558H106.907V51.4509H106.359V48.0558H105.045V47.6189H108.215Z" fill="#AFB1B8"/>
<path d="M112.314 51.4512H111.891C111.848 51.4537 111.805 51.4407 111.772 51.4148C111.74 51.3925 111.716 51.362 111.702 51.3268L111.324 50.4166H109.509L109.131 51.3268C109.121 51.3649 109.101 51.4001 109.074 51.43C109.04 51.4554 108.998 51.4683 108.955 51.4664H108.532L110.134 47.6345H110.692L112.314 51.4512ZM109.66 50.0283H111.173L110.532 48.4688C110.485 48.3509 110.445 48.2303 110.413 48.1078C110.391 48.1806 110.372 48.2504 110.352 48.3111L110.295 48.4719L109.66 50.0283Z" fill="#AFB1B8"/>
<path d="M115.077 51.0748C115.177 51.0798 115.277 51.0798 115.378 51.0748C115.464 51.0664 115.55 51.0512 115.634 51.0293C115.713 51.0111 115.79 50.9878 115.865 50.9595C115.935 50.9322 116.006 50.8988 116.08 50.8655V50.0037H115.439C115.423 50.0046 115.407 50.0023 115.392 49.9971C115.377 49.9919 115.364 49.9838 115.352 49.9734C115.342 49.9648 115.333 49.954 115.328 49.9419C115.322 49.9299 115.32 49.9167 115.32 49.9036V49.6093H116.564V51.0779C116.462 51.1466 116.355 51.2075 116.243 51.2599C116.129 51.3133 116.01 51.357 115.887 51.3904C115.756 51.4269 115.622 51.4533 115.487 51.4693C115.331 51.4856 115.175 51.4937 115.019 51.4936C114.742 51.4958 114.468 51.4473 114.211 51.351C113.971 51.2596 113.753 51.1234 113.57 50.9504C113.392 50.7757 113.251 50.5695 113.157 50.3436C113.056 50.0896 113.006 49.8199 113.009 49.5486C113.006 49.2755 113.055 49.0041 113.154 48.7475C113.246 48.5204 113.387 48.3138 113.567 48.1406C113.75 47.9682 113.968 47.833 114.208 47.7431C114.482 47.6454 114.774 47.597 115.067 47.6005C115.216 47.6003 115.365 47.6115 115.512 47.6339C115.643 47.654 115.77 47.6865 115.894 47.731C116.006 47.7709 116.113 47.8217 116.214 47.8827C116.312 47.9426 116.406 48.0095 116.493 48.083L116.339 48.3197C116.327 48.3413 116.309 48.3594 116.287 48.3722C116.265 48.3851 116.24 48.392 116.214 48.3925C116.179 48.3914 116.144 48.3809 116.115 48.3621C116.067 48.3379 116.016 48.3075 115.958 48.2711C115.89 48.2307 115.818 48.1961 115.743 48.1679C115.648 48.1317 115.549 48.1032 115.448 48.083C115.314 48.0596 115.178 48.0484 115.041 48.0496C114.83 48.0474 114.62 48.0834 114.423 48.1558C114.244 48.2235 114.084 48.3271 113.952 48.4592C113.819 48.597 113.717 48.7592 113.654 48.9356C113.51 49.3507 113.51 49.7981 113.654 50.2131C113.724 50.3933 113.833 50.5576 113.974 50.6955C114.105 50.827 114.265 50.9304 114.442 50.999C114.646 51.0652 114.862 51.091 115.077 51.0748Z" fill="#AFB1B8"/>
<path d="M120.185 51.014H121.935V51.4509H119.65V47.6189H120.198L120.185 51.014Z" fill="#AFB1B8"/>
<path d="M123.755 51.4509H123.207V47.6189H123.755V51.4509Z" fill="#AFB1B8"/>
<path d="M125.794 47.6371C125.826 47.6547 125.855 47.6785 125.877 47.7069L128.22 50.5955C128.217 50.5501 128.217 50.5045 128.22 50.459C128.22 50.4165 128.22 50.374 128.22 50.3346V47.6038H128.697V51.4512H128.422C128.381 51.4543 128.34 51.447 128.303 51.43C128.27 51.4109 128.241 51.3862 128.217 51.3571L125.877 48.4716C125.877 48.5171 125.877 48.5595 125.877 48.602C125.877 48.6445 125.877 48.684 125.877 48.7204V51.4512H125.419V47.6189H125.704C125.735 47.619 125.766 47.6252 125.794 47.6371Z" fill="#AFB1B8"/>
<path d="M132.732 47.6189V48.0406H130.79V49.3059H132.364V49.7124H130.79V51.0202H132.732V51.4419H130.226V47.6189H132.732Z" fill="#AFB1B8"/>
<path d="M75.3035 23.9539L99.6385 30.4953V53.4173L75.3035 46.879V23.9539ZM73.7427 22V47.9925L101.196 55.3743V29.3848L73.7427 22Z" fill="#AFB1B8"/>
<path d="M88.4565 67.4402L61 60.0522V34.0625L88.4565 41.4474V67.4402Z" fill="#AFB1B8"/>
<path d="M74.1978 23.6596L98.2155 30.1189L88.0014 39.7912L63.9806 33.3288L74.1978 23.6596ZM73.7427 22L61 34.0631L88.4565 41.4478L101.196 29.3847L73.7427 22Z" fill="#AFB1B8"/>
<path d="M90.0013 65.978L101.196 55.3774L90.0013 52.3647V65.978Z" fill="#AFB1B8"/>
</svg>
