<svg width="210" height="90" viewBox="0 0 210 90" fill="none" xmlns="http://www.w3.org/2000/svg">
<rect x="0.5" y="0.5" width="209" height="89" rx="3.5" stroke="#2196F3"/>
<path d="M77.4021 36.8306H77.3994C75.1371 36.8306 73.3031 38.6177 73.3031 40.8223V40.8249C73.3031 43.0295 75.1371 44.8167 77.3994 44.8167H77.4021C79.6644 44.8167 81.4983 43.0295 81.4983 40.8249V40.8223C81.4983 38.6177 79.6644 36.8306 77.4021 36.8306Z" fill="#2196F3"/>
<path d="M107.637 35.5545C107.63 32.4924 106.38 29.5575 104.158 27.3921C101.936 25.2266 98.925 24.007 95.7828 24V24C92.6397 24.0056 89.6269 25.2246 87.4041 27.3902C85.1814 29.5558 83.9298 32.4915 83.9233 35.5545V52.4402C83.9233 52.4402 107.634 49.8667 107.637 35.5571V35.5545Z" fill="#2196F3"/>
<path d="M65 57.9823C65.0057 60.1129 65.8766 62.1547 67.4223 63.6615C68.968 65.1683 71.0629 66.0177 73.2492 66.0239C75.4351 66.0177 77.5296 65.1687 79.0752 63.6625C80.6209 62.1562 81.492 60.1151 81.4985 57.9849V46.2356C81.4985 46.2356 65 48.0276 65 57.9823ZM73.2492 60.0874C72.822 60.0874 72.4043 59.964 72.0491 59.7326C71.6938 59.5013 71.417 59.1726 71.2535 58.7879C71.09 58.4032 71.0472 57.98 71.1305 57.5716C71.2139 57.1632 71.4196 56.7881 71.7217 56.4937C72.0239 56.1993 72.4088 55.9988 72.8278 55.9176C73.2468 55.8364 73.6812 55.8781 74.0759 56.0374C74.4706 56.1967 74.808 56.4665 75.0454 56.8127C75.2827 57.1589 75.4094 57.5659 75.4094 57.9823C75.4105 58.2594 75.3554 58.534 75.2473 58.7903C75.1392 59.0466 74.9803 59.2796 74.7796 59.476C74.5789 59.6723 74.3404 59.828 74.0778 59.9343C73.8152 60.0406 73.5336 60.0953 73.2492 60.0953V60.0874Z" fill="#2196F3"/>
<path d="M90.0891 58.7812H88.4016V60.5244H87.5227V56.2588H90.3V56.9707H88.4016V58.0723H90.0891V58.7812ZM94.3137 58.4883C94.3137 58.9082 94.2395 59.2764 94.0911 59.5928C93.9426 59.9092 93.7297 60.1533 93.4524 60.3252C93.177 60.4971 92.8606 60.583 92.5032 60.583C92.1497 60.583 91.8342 60.498 91.5569 60.3281C91.2795 60.1582 91.0647 59.916 90.9124 59.6016C90.76 59.2852 90.6829 58.9219 90.6809 58.5117V58.3008C90.6809 57.8809 90.7561 57.5117 90.9065 57.1934C91.0588 56.873 91.2727 56.6279 91.5481 56.458C91.8254 56.2861 92.1418 56.2002 92.4973 56.2002C92.8528 56.2002 93.1682 56.2861 93.4436 56.458C93.7209 56.6279 93.9348 56.873 94.0852 57.1934C94.2375 57.5117 94.3137 57.8799 94.3137 58.2979V58.4883ZM93.4231 58.2949C93.4231 57.8477 93.343 57.5078 93.1829 57.2754C93.0227 57.043 92.7942 56.9268 92.4973 56.9268C92.2024 56.9268 91.9749 57.042 91.8147 57.2725C91.6545 57.501 91.5735 57.8369 91.5715 58.2803V58.4883C91.5715 58.9238 91.6516 59.2617 91.8118 59.502C91.9719 59.7422 92.2024 59.8623 92.5032 59.8623C92.7981 59.8623 93.0247 59.7471 93.1829 59.5166C93.3411 59.2842 93.4211 58.9463 93.4231 58.5029V58.2949ZM97.1643 59.4053C97.1643 59.2393 97.1057 59.1123 96.9885 59.0244C96.8713 58.9346 96.6604 58.8408 96.3557 58.7432C96.051 58.6436 95.8098 58.5459 95.6321 58.4502C95.1477 58.1885 94.9055 57.8359 94.9055 57.3926C94.9055 57.1621 94.97 56.957 95.0989 56.7773C95.2297 56.5957 95.4163 56.4541 95.6584 56.3525C95.9026 56.251 96.176 56.2002 96.4788 56.2002C96.7834 56.2002 97.0549 56.2559 97.2932 56.3672C97.5315 56.4766 97.7161 56.6318 97.8469 56.833C97.9797 57.0342 98.0461 57.2627 98.0461 57.5186H97.1672C97.1672 57.3232 97.1057 57.1719 96.9827 57.0645C96.8596 56.9551 96.6868 56.9004 96.4641 56.9004C96.2493 56.9004 96.0823 56.9463 95.9631 57.0381C95.844 57.1279 95.7844 57.2471 95.7844 57.3955C95.7844 57.5342 95.8538 57.6504 95.9924 57.7441C96.1331 57.8379 96.3391 57.9258 96.6106 58.0078C97.1106 58.1582 97.4749 58.3447 97.7034 58.5674C97.9319 58.79 98.0461 59.0674 98.0461 59.3994C98.0461 59.7686 97.9065 60.0586 97.6272 60.2695C97.3479 60.4785 96.9719 60.583 96.4993 60.583C96.1711 60.583 95.8723 60.5234 95.6028 60.4043C95.3333 60.2832 95.1272 60.1182 94.9846 59.9092C94.844 59.7002 94.7737 59.458 94.7737 59.1826H95.6555C95.6555 59.6533 95.9368 59.8887 96.4993 59.8887C96.7083 59.8887 96.8713 59.8467 96.9885 59.7627C97.1057 59.6768 97.1643 59.5576 97.1643 59.4053ZM101.855 56.9707H100.548V60.5244H99.6692V56.9707H98.3801V56.2588H101.855V56.9707ZM104.925 58.6758H103.238V59.8184H105.218V60.5244H102.359V56.2588H105.212V56.9707H103.238V57.9873H104.925V58.6758ZM107.313 58.9629H106.613V60.5244H105.734V56.2588H107.319C107.823 56.2588 108.211 56.3711 108.485 56.5957C108.758 56.8203 108.895 57.1377 108.895 57.5479C108.895 57.8389 108.831 58.082 108.704 58.2773C108.579 58.4707 108.389 58.625 108.133 58.7402L109.056 60.4834V60.5244H108.113L107.313 58.9629ZM106.613 58.251H107.322C107.542 58.251 107.713 58.1953 107.834 58.084C107.955 57.9707 108.016 57.8154 108.016 57.6182C108.016 57.417 107.958 57.2588 107.843 57.1436C107.73 57.0283 107.555 56.9707 107.319 56.9707H106.613V58.251ZM111.939 59.0215V60.5244H111.06V56.2588H112.724C113.044 56.2588 113.325 56.3174 113.568 56.4346C113.812 56.5518 113.999 56.7188 114.13 56.9355C114.261 57.1504 114.326 57.3955 114.326 57.6709C114.326 58.0889 114.183 58.4189 113.896 58.6611C113.611 58.9014 113.215 59.0215 112.709 59.0215H111.939ZM111.939 58.3096H112.724C112.956 58.3096 113.133 58.2549 113.254 58.1455C113.377 58.0361 113.439 57.8799 113.439 57.6768C113.439 57.4678 113.377 57.2988 113.254 57.1699C113.131 57.041 112.961 56.9746 112.744 56.9707H111.939V58.3096ZM117.499 58.6758H115.812V59.8184H117.792V60.5244H114.933V56.2588H117.786V56.9707H115.812V57.9873H117.499V58.6758ZM121.577 56.9707H120.271V60.5244H119.392V56.9707H118.103V56.2588H121.577V56.9707ZM124.648 58.6758H122.96V59.8184H124.941V60.5244H122.081V56.2588H124.935V56.9707H122.96V57.9873H124.648V58.6758ZM127.035 58.9629H126.335V60.5244H125.456V56.2588H127.041C127.545 56.2588 127.934 56.3711 128.207 56.5957C128.481 56.8203 128.617 57.1377 128.617 57.5479C128.617 57.8389 128.554 58.082 128.427 58.2773C128.302 58.4707 128.112 58.625 127.856 58.7402L128.779 60.4834V60.5244H127.835L127.035 58.9629ZM126.335 58.251H127.044C127.265 58.251 127.436 58.1953 127.557 58.084C127.678 57.9707 127.739 57.8154 127.739 57.6182C127.739 57.417 127.681 57.2588 127.566 57.1436C127.452 57.0283 127.278 56.9707 127.041 56.9707H126.335V58.251ZM131.5 59.4053C131.5 59.2393 131.442 59.1123 131.324 59.0244C131.207 58.9346 130.996 58.8408 130.692 58.7432C130.387 58.6436 130.146 58.5459 129.968 58.4502C129.484 58.1885 129.241 57.8359 129.241 57.3926C129.241 57.1621 129.306 56.957 129.435 56.7773C129.566 56.5957 129.752 56.4541 129.994 56.3525C130.239 56.251 130.512 56.2002 130.815 56.2002C131.119 56.2002 131.391 56.2559 131.629 56.3672C131.867 56.4766 132.052 56.6318 132.183 56.833C132.316 57.0342 132.382 57.2627 132.382 57.5186H131.503C131.503 57.3232 131.442 57.1719 131.319 57.0645C131.196 56.9551 131.023 56.9004 130.8 56.9004C130.585 56.9004 130.418 56.9463 130.299 57.0381C130.18 57.1279 130.12 57.2471 130.12 57.3955C130.12 57.5342 130.19 57.6504 130.328 57.7441C130.469 57.8379 130.675 57.9258 130.947 58.0078C131.447 58.1582 131.811 58.3447 132.039 58.5674C132.268 58.79 132.382 59.0674 132.382 59.3994C132.382 59.7686 132.242 60.0586 131.963 60.2695C131.684 60.4785 131.308 60.583 130.835 60.583C130.507 60.583 130.208 60.5234 129.939 60.4043C129.669 60.2832 129.463 60.1182 129.321 59.9092C129.18 59.7002 129.11 59.458 129.11 59.1826H129.991C129.991 59.6533 130.273 59.8887 130.835 59.8887C131.044 59.8887 131.207 59.8467 131.324 59.7627C131.442 59.6768 131.5 59.5576 131.5 59.4053Z" fill="#2196F3"/>
</svg>
