<svg width="210" height="90" viewBox="0 0 210 90" fill="none" xmlns="http://www.w3.org/2000/svg">
<rect x="0.5" y="0.5" width="209" height="89" rx="3.5" stroke="#AFB1B8"/>
<path d="M89 20L96.3076 26.918H116.692V46.2158L124 53.1338V20H89Z" fill="#AFB1B8"/>
<path d="M83 26.6265V58.8137H117V46.0195L96.5231 26.6344L83 26.6265ZM110.523 54.1055H88.3801V32.4579H89.9453V52.6397H110.523V54.1055Z" fill="#AFB1B8"/>
<path d="M92.791 64.7837L93.6089 63.0991H94.2925L93.1011 65.3452V66.6538H92.481V65.3452L91.2871 63.0991H91.9731L92.791 64.7837ZM96.3018 65.8262H94.9248L94.6367 66.6538H93.9946L95.3374 63.0991H95.8916L97.2368 66.6538H96.5923L96.3018 65.8262ZM95.0981 65.3281H96.1284L95.6133 63.8535L95.0981 65.3281ZM98.7358 65.6943C98.7358 65.5299 98.7806 65.3794 98.8701 65.2427C98.9596 65.1043 99.1362 64.9408 99.3999 64.752C99.2616 64.5778 99.1647 64.4297 99.1094 64.3076C99.0557 64.1855 99.0288 64.0675 99.0288 63.9536C99.0288 63.6753 99.1134 63.4556 99.2827 63.2944C99.452 63.1317 99.6799 63.0503 99.9663 63.0503C100.225 63.0503 100.437 63.1268 100.601 63.2798C100.767 63.4312 100.85 63.6191 100.85 63.8438C100.85 63.9919 100.813 64.1286 100.738 64.2539C100.663 64.3776 100.54 64.5013 100.369 64.625L100.127 64.8008L100.813 65.6113C100.913 65.416 100.962 65.1987 100.962 64.9595H101.478C101.478 65.3973 101.375 65.7562 101.17 66.0361L101.692 66.6538H101.004L100.804 66.417C100.55 66.6074 100.247 66.7026 99.8955 66.7026C99.5439 66.7026 99.2624 66.6099 99.0508 66.4243C98.8408 66.2371 98.7358 65.9938 98.7358 65.6943ZM99.9126 66.229C100.113 66.229 100.3 66.1623 100.474 66.0288L99.6978 65.1133L99.6221 65.167C99.4268 65.3151 99.3291 65.4844 99.3291 65.6748C99.3291 65.8392 99.382 65.9727 99.4878 66.0752C99.5936 66.1777 99.7352 66.229 99.9126 66.229ZM99.5854 63.939C99.5854 64.0757 99.6693 64.2474 99.8369 64.4541L100.108 64.2686L100.184 64.2075C100.285 64.118 100.335 64.0033 100.335 63.8633C100.335 63.7705 100.3 63.6916 100.23 63.6265C100.16 63.5597 100.071 63.5264 99.9639 63.5264C99.8483 63.5264 99.7563 63.5654 99.688 63.6436C99.6196 63.7217 99.5854 63.8201 99.5854 63.939ZM106.043 65.4966C106.007 65.8758 105.867 66.172 105.623 66.3853C105.379 66.5968 105.054 66.7026 104.649 66.7026C104.366 66.7026 104.116 66.6359 103.899 66.5024C103.685 66.3674 103.519 66.1761 103.401 65.9287C103.284 65.6813 103.223 65.394 103.218 65.0669V64.7349C103.218 64.3996 103.278 64.1042 103.396 63.8486C103.515 63.5931 103.685 63.3962 103.907 63.2578C104.13 63.1195 104.387 63.0503 104.678 63.0503C105.07 63.0503 105.386 63.1569 105.625 63.3701C105.865 63.5833 106.004 63.8844 106.043 64.2734H105.428C105.398 64.0179 105.324 63.834 105.203 63.7217C105.084 63.6077 104.909 63.5508 104.678 63.5508C104.41 63.5508 104.203 63.6493 104.058 63.8462C103.915 64.0415 103.842 64.3288 103.838 64.708V65.0229C103.838 65.4071 103.907 65.7 104.043 65.9019C104.182 66.1037 104.384 66.2046 104.649 66.2046C104.891 66.2046 105.074 66.1501 105.196 66.041C105.318 65.932 105.395 65.7505 105.428 65.4966H106.043ZM109.434 64.9692C109.434 65.3175 109.374 65.6235 109.253 65.8872C109.133 66.1493 108.96 66.3511 108.736 66.4927C108.513 66.6326 108.256 66.7026 107.964 66.7026C107.676 66.7026 107.419 66.6326 107.193 66.4927C106.968 66.3511 106.794 66.1501 106.67 65.8896C106.548 65.6292 106.486 65.3289 106.485 64.9888V64.7886C106.485 64.4419 106.546 64.1359 106.668 63.8706C106.792 63.6053 106.965 63.4027 107.188 63.2627C107.413 63.1211 107.67 63.0503 107.959 63.0503C108.249 63.0503 108.506 63.1203 108.729 63.2603C108.953 63.3986 109.126 63.5988 109.249 63.8608C109.371 64.1213 109.432 64.4248 109.434 64.7715V64.9692ZM108.816 64.7837C108.816 64.3898 108.742 64.0879 108.592 63.8779C108.444 63.668 108.233 63.563 107.959 63.563C107.693 63.563 107.483 63.668 107.332 63.8779C107.182 64.0863 107.106 64.3817 107.103 64.7642V64.9692C107.103 65.3599 107.178 65.6618 107.33 65.875C107.483 66.0882 107.694 66.1948 107.964 66.1948C108.238 66.1948 108.448 66.0907 108.594 65.8823C108.742 65.674 108.816 65.3696 108.816 64.9692V64.7837Z" fill="#AFB1B8"/>
</svg>
