<svg width="210" height="90" viewBox="0 0 210 90" fill="none" xmlns="http://www.w3.org/2000/svg">
<rect x="0.5" y="0.5" width="209" height="89" rx="3.5" stroke="#AFB1B8"/>
<path d="M80.4876 61.2777C80.7175 61.5633 80.84 61.9211 80.8336 62.2883C80.8453 62.5278 80.8032 62.7669 80.7104 62.9879C80.6176 63.2089 80.4765 63.4061 80.2975 63.5649C79.851 63.9036 79.2977 64.0691 78.7393 64.0311H76V57.6262H78.6832C79.2129 57.5908 79.7383 57.7412 80.1698 58.0517C80.3431 58.1973 80.4803 58.3814 80.5706 58.5893C80.6609 58.7973 80.7019 59.0235 80.6902 59.2501C80.706 59.6034 80.5954 59.9508 80.3786 60.2295C80.1704 60.4839 79.8826 60.6604 79.5621 60.7301C79.9255 60.7967 80.2535 60.9907 80.4876 61.2777ZM77.2746 60.3108H78.4215C78.6821 60.3302 78.941 60.2546 79.1507 60.098C79.2368 60.0197 79.3038 59.9225 79.3465 59.814C79.3892 59.7055 79.4064 59.5885 79.3969 59.4722C79.405 59.3564 79.3874 59.2402 79.3453 59.1319C79.3033 59.0237 79.2379 58.9262 79.1538 58.8465C78.9378 58.6854 78.6709 58.6087 78.4028 58.6306H77.2746V60.3108ZM79.2629 62.767C79.3549 62.6868 79.4273 62.5864 79.4743 62.4735C79.5213 62.3606 79.5418 62.2383 79.534 62.1162C79.541 61.9927 79.5197 61.8692 79.4716 61.7552C79.4235 61.6413 79.35 61.54 79.2567 61.4591C79.0323 61.2921 78.7563 61.2101 78.4776 61.2276H77.2746V62.9892H78.4931C78.7674 63.0051 79.0389 62.9267 79.2629 62.767Z" fill="#AFB1B8"/>
<path d="M85.9726 64.0312L84.4798 61.528H83.9189V64.0312H82.6349V57.6262H85.0657C85.6784 57.5833 86.2842 57.7781 86.7579 58.1706C87.0977 58.5183 87.3026 58.9763 87.3358 59.4622C87.3689 59.9482 87.2281 60.43 86.9387 60.8209C86.6388 61.1658 86.2291 61.3958 85.7794 61.4717L87.3687 64.0312H85.9726ZM83.9189 60.655H84.9691C85.6983 60.655 86.0629 60.3317 86.0629 59.6851C86.0704 59.553 86.0504 59.4208 86.0043 59.297C85.9581 59.1731 85.8868 59.0602 85.7949 58.9654C85.5645 58.773 85.2677 58.6796 84.9691 58.7057H83.9064L83.9189 60.655Z" fill="#AFB1B8"/>
<path d="M92.9907 62.7421H90.4321L89.9802 64.0312H88.6339L90.9837 57.6982H92.4391L94.7795 64.0312H93.4332L92.9907 62.7421ZM92.6479 61.7721L91.7129 59.0687L90.778 61.7721H92.6479Z" fill="#AFB1B8"/>
<path d="M101.776 64.0312H100.501L97.6436 59.6757V64.0312H96.3721V57.6262H97.6436L100.501 62.0068V57.6262H101.776V64.0312Z" fill="#AFB1B8"/>
<path d="M109.05 62.4981C108.786 62.9817 108.384 63.375 107.897 63.6276C107.342 63.909 106.726 64.0477 106.105 64.0313H103.836V57.6263H106.105C106.725 57.61 107.34 57.7453 107.897 58.0206C108.384 58.2674 108.786 58.6569 109.05 59.1376C109.312 59.6585 109.449 60.2341 109.449 60.8178C109.449 61.4016 109.312 61.9772 109.05 62.4981ZM107.591 62.3448C107.955 61.9193 108.155 61.377 108.155 60.8163C108.155 60.2555 107.955 59.7133 107.591 59.2878C107.151 58.9024 106.578 58.7067 105.995 58.7433H105.11V62.8892H105.995C106.578 62.9258 107.151 62.7302 107.591 62.3448Z" fill="#AFB1B8"/>
<path d="M93.7885 22C93.7885 22 110.24 28.236 109.891 37.2599V52.5229C109.891 52.5229 93.4519 46.2838 93.7947 37.2599L93.7885 22Z" fill="#AFB1B8"/>
<path d="M124.547 48.9497C127.655 46.8029 131.248 45.4732 135 45.0824V40.3044C130.677 41.9772 127.01 45.0102 124.547 48.9497Z" fill="#AFB1B8"/>
<path d="M122.681 50.3889C125.224 45.2477 129.633 41.2804 135 39.303V25.5356C135 25.5356 111.571 34.4187 112.066 47.2693V68.9999C112.066 68.9999 113.11 68.6025 114.753 67.8578C114.753 67.1632 114.753 66.4623 114.827 65.7583C115.312 59.7925 118.137 54.2641 122.681 50.3889Z" fill="#AFB1B8"/>
<path d="M120.453 58.4616C120.576 56.9545 120.85 55.4638 121.272 54.0122C118.443 57.3588 116.73 61.5116 116.373 65.8866C116.339 66.2996 116.32 66.7126 116.311 67.1382C117.642 66.4967 119.19 65.6957 120.817 64.7539C120.402 62.684 120.279 60.5658 120.453 58.4616Z" fill="#AFB1B8"/>
<path d="M121.384 58.5398C121.228 60.4436 121.326 62.3597 121.674 64.2377C128.075 60.3922 135.268 54.4503 134.991 47.2693V46.6436C130.417 47.1573 126.138 49.1646 122.812 52.357C122.033 54.3354 121.552 56.4192 121.384 58.5398Z" fill="#AFB1B8"/>
</svg>
