<svg width="210" height="90" viewBox="0 0 210 90" fill="none" xmlns="http://www.w3.org/2000/svg">
<rect x="0.5" y="0.5" width="209" height="89" rx="3.5" stroke="#AFB1B8"/>
<path d="M91.3454 65.7946C91.3604 65.795 91.3752 65.7982 91.3889 65.8041C91.4026 65.81 91.4149 65.8184 91.4251 65.8289L91.6309 66.0446C91.4712 66.2191 91.2738 66.3588 91.0522 66.4539C90.7927 66.5577 90.513 66.6078 90.2317 66.6009C89.9673 66.6061 89.7046 66.5594 89.46 66.4637C89.2394 66.3758 89.0412 66.2437 88.8787 66.0764C88.713 65.9029 88.5853 65.6996 88.5032 65.4784C88.4133 65.2318 88.3689 64.9723 88.372 64.7113C88.3684 64.4486 88.4164 64.1875 88.5135 63.9417C88.6033 63.7191 88.7389 63.5158 88.9122 63.3436C89.0878 63.1749 89.2979 63.0423 89.5295 62.9539C89.7828 62.8604 90.0526 62.8138 90.3243 62.8167C90.5766 62.8108 90.8277 62.8534 91.0625 62.9417C91.2662 63.0259 91.4532 63.1428 91.6155 63.2873L91.4432 63.5177C91.4312 63.5339 91.4164 63.548 91.3994 63.5593C91.3791 63.5726 91.3545 63.5787 91.33 63.5765C91.3033 63.5747 91.2775 63.5663 91.2554 63.552L91.1628 63.4907L91.0342 63.4123C90.9787 63.3832 90.9211 63.3578 90.8619 63.3363C90.7856 63.3103 90.7073 63.2898 90.6278 63.275C90.5268 63.2573 90.4243 63.2491 90.3217 63.2505C90.1261 63.2482 89.9319 63.2832 89.7507 63.3534C89.5817 63.4185 89.4291 63.5171 89.3031 63.6427C89.1749 63.7762 89.076 63.9329 89.0125 64.1034C88.94 64.2985 88.9043 64.5043 88.907 64.7113C88.9039 64.9214 88.9396 65.1305 89.0125 65.3289C89.0752 65.498 89.1723 65.6537 89.298 65.7872C89.4158 65.9117 89.5618 66.0089 89.725 66.0715C89.8929 66.1379 90.0731 66.1712 90.2548 66.1696C90.3598 66.1711 90.4648 66.1646 90.5686 66.15C90.7382 66.1302 90.9009 66.0741 91.0445 65.9858C91.1165 65.9405 91.1844 65.8897 91.2477 65.8338C91.2741 65.8098 91.3089 65.7958 91.3454 65.7946Z" fill="#AFB1B8"/>
<path d="M97.2871 64.7108C97.2903 64.9709 97.2432 65.2292 97.1482 65.473C97.0644 65.6941 96.9323 65.8958 96.7608 66.0648C96.5892 66.2338 96.382 66.3662 96.1528 66.4533C95.6492 66.6363 95.0925 66.6363 94.589 66.4533C94.3613 66.3648 94.1554 66.2321 93.9845 66.0636C93.8131 65.8916 93.68 65.6882 93.5936 65.4657C93.4083 64.972 93.4083 64.4325 93.5936 63.9388C93.6813 63.7162 93.8141 63.5122 93.9845 63.3384C94.1568 63.1752 94.3626 63.0476 94.589 62.9635C95.0919 62.7772 95.6499 62.7772 96.1528 62.9635C96.3813 63.0519 96.588 63.1846 96.7598 63.3531C96.9292 63.5235 97.0612 63.7243 97.1482 63.9437C97.2435 64.1892 97.2906 64.4492 97.2871 64.7108ZM96.747 64.7108C96.751 64.5028 96.718 64.2956 96.6492 64.0981C96.5916 63.929 96.4979 63.7729 96.374 63.6399C96.2534 63.5139 96.1049 63.4152 95.9393 63.3507C95.5734 63.2167 95.1684 63.2167 94.8024 63.3507C94.6368 63.4152 94.4884 63.5139 94.3678 63.6399C94.2422 63.7722 94.1475 63.9284 94.09 64.0981C93.9591 64.4971 93.9591 64.9246 94.09 65.3235C94.148 65.4931 94.2427 65.6492 94.3678 65.7818C94.4885 65.907 94.637 66.0049 94.8024 66.0685C95.169 66.1991 95.5728 66.1991 95.9393 66.0685C96.1048 66.0049 96.2533 65.907 96.374 65.7818C96.4974 65.6484 96.591 65.4925 96.6492 65.3235C96.7183 65.1261 96.7513 64.9189 96.747 64.7108Z" fill="#AFB1B8"/>
<path d="M101.341 65.3532L101.395 65.4904C101.415 65.4414 101.433 65.3973 101.454 65.3532C101.474 65.3071 101.496 65.2621 101.521 65.2184L102.835 62.942C102.861 62.9028 102.884 62.8783 102.91 62.8709C102.945 62.8608 102.981 62.8566 103.018 62.8587H103.406V66.5613H102.946V63.8388C102.946 63.8045 102.946 63.7653 102.946 63.7237C102.943 63.6812 102.943 63.6387 102.946 63.5962L101.624 65.9046C101.607 65.9391 101.58 65.9684 101.546 65.9888C101.513 66.0092 101.473 66.02 101.433 66.0197H101.359C101.319 66.0203 101.279 66.0097 101.246 65.9892C101.212 65.9687 101.185 65.9393 101.168 65.9046L99.8078 63.5815C99.8078 63.6256 99.8078 63.6698 99.8078 63.7139C99.8078 63.758 99.8078 63.7972 99.8078 63.8315V66.5539H99.3628V62.8587H99.7512C99.7877 62.8566 99.8243 62.8608 99.8592 62.8709C99.8911 62.886 99.9165 62.9111 99.9312 62.942L101.274 65.2209C101.3 65.263 101.323 65.3073 101.341 65.3532Z" fill="#AFB1B8"/>
<path d="M106.287 65.1692V66.5562H105.773V62.8585H106.92C107.136 62.8546 107.352 62.8818 107.56 62.9394C107.727 62.9843 107.881 63.0629 108.013 63.1697C108.127 63.2699 108.215 63.394 108.27 63.5324C108.331 63.6832 108.361 63.8438 108.358 64.0053C108.36 64.1675 108.328 64.3284 108.263 64.4782C108.201 64.6201 108.106 64.7466 107.985 64.8482C107.853 64.9595 107.698 65.043 107.529 65.0933C107.329 65.1542 107.12 65.1832 106.91 65.179L106.287 65.1692ZM106.287 64.7723H106.91C107.045 64.7739 107.179 64.7549 107.308 64.7159C107.415 64.6818 107.513 64.6277 107.596 64.5566C107.674 64.4888 107.733 64.405 107.771 64.3116C107.813 64.2128 107.834 64.107 107.833 64.0004C107.839 63.8976 107.821 63.7948 107.781 63.6992C107.741 63.6035 107.68 63.5174 107.602 63.4466C107.405 63.3004 107.158 63.2296 106.91 63.2481H106.287V64.7723Z" fill="#AFB1B8"/>
<path d="M113.201 66.5612H112.795C112.754 66.5626 112.714 66.5505 112.681 66.5268C112.652 66.5038 112.629 66.4744 112.615 66.4411L112.265 65.5466H110.508L110.145 66.4411C110.132 66.4738 110.11 66.5025 110.081 66.5244C110.048 66.5495 110.007 66.5625 109.965 66.5612H109.559L111.102 62.8582H111.637L113.201 66.5612ZM110.655 65.1863H112.105L111.493 63.6791C111.446 63.5658 111.408 63.4495 111.377 63.3311L111.318 63.5247C111.3 63.5836 111.28 63.6375 111.262 63.6816L110.655 65.1863Z" fill="#AFB1B8"/>
<path d="M115.423 62.8754C115.454 62.8915 115.481 62.9141 115.501 62.9416L117.751 65.7329C117.751 65.6887 117.751 65.6446 117.751 65.603C117.751 65.5613 117.751 65.5197 117.751 65.4804V62.8582H118.212V66.5612H117.954C117.918 66.5622 117.882 66.5547 117.849 66.5391C117.817 66.5215 117.789 66.4982 117.767 66.4705L115.519 63.6817C115.521 63.7241 115.521 63.7666 115.519 63.8091C115.519 63.8508 115.519 63.8875 115.519 63.9218V66.5612H115.058V62.8582H115.331C115.363 62.8574 115.394 62.8632 115.423 62.8754Z" fill="#AFB1B8"/>
<path d="M122.003 65.0884V66.5588H121.488V65.0884L120.066 62.8584H120.526C120.566 62.8561 120.605 62.8674 120.637 62.8902C120.665 62.914 120.689 62.9422 120.707 62.9735L121.596 64.4121C121.632 64.4733 121.663 64.5297 121.689 64.5836C121.715 64.6375 121.735 64.689 121.753 64.7405L121.82 64.5812C121.845 64.5229 121.874 64.4664 121.908 64.4121L122.785 62.9637C122.803 62.9348 122.826 62.9084 122.852 62.8853C122.882 62.8599 122.922 62.8467 122.962 62.8486H123.428L122.003 65.0884Z" fill="#AFB1B8"/>
<path d="M101.086 56.6443C101.31 56.6712 101.536 56.6933 101.765 56.7129C105.236 55.2337 108.172 52.8127 110.206 49.7526C112.241 46.6924 113.283 43.1289 113.204 39.5073L109.379 35.8633C110.156 39.7191 109.793 43.705 108.328 47.3751C106.864 51.0452 104.356 54.2546 101.086 56.6443Z" fill="#AFB1B8"/>
<path d="M99.7205 56.4748L99.8233 56.4944C103.318 54.1132 105.982 50.788 107.471 46.9488C108.96 43.1097 109.207 38.9331 108.178 34.9592L102.73 29.769C104.933 34.0353 105.82 38.8098 105.288 43.5374C104.755 48.265 102.824 52.7514 99.7205 56.4748Z" fill="#AFB1B8"/>
<path d="M118.196 43.7861C117.271 47.7654 115.023 51.3541 111.786 54.0196C110.841 54.8023 109.822 55.4996 108.741 56.1025C111.376 55.3646 113.799 54.0598 115.821 52.289C117.843 50.5181 119.412 48.3284 120.406 45.8887L118.196 43.7861Z" fill="#AFB1B8"/>
<path d="M117.329 43.2002L114.183 40.2031C114.123 43.6201 113.104 46.9594 111.231 49.8739C109.358 52.7885 106.699 55.1718 103.532 56.7764H103.548C104.253 56.7761 104.959 56.736 105.659 56.6563C108.619 55.5053 111.234 53.6742 113.27 51.3262C115.306 48.9782 116.701 46.1865 117.329 43.2002Z" fill="#AFB1B8"/>
<path d="M100.176 27.5803L96.4229 24C93.0681 25.2351 90.1828 27.4064 88.1446 30.2297C86.1065 33.053 85.0105 36.3968 85 39.8234V39.8234C85.0126 43.6097 86.3502 47.2838 88.8012 50.2643C91.2521 53.2448 94.6764 55.3614 98.5321 56.2791C101.974 52.2838 103.989 47.347 104.285 42.186C104.58 37.025 103.141 31.9086 100.176 27.5803Z" fill="#AFB1B8"/>
<path d="M126 42.649C125.986 38.1568 124.107 33.8522 120.773 30.6757C117.439 27.4992 112.921 25.709 108.206 25.6961C106.027 25.6939 103.867 26.077 101.835 26.8258L124.812 48.7166C125.598 46.7815 126.001 44.7241 126 42.649Z" fill="#AFB1B8"/>
</svg>
