<svg width="210" height="90" viewBox="0 0 210 90" fill="none" xmlns="http://www.w3.org/2000/svg">
<rect x="0.5" y="0.5" width="209" height="89" rx="3.5" stroke="#AFB1B8"/>
<path d="M101.977 21.9345H102.114C102.367 21.9345 102.64 21.9599 102.91 21.9828C104.103 22.067 105.287 22.2455 106.452 22.5168V19.6535C105.253 19.3526 104.03 19.1578 102.797 19.0712C102.329 19.0356 101.83 19.0127 101.319 19H100.892C98.4169 19.0093 95.9527 19.3271 93.5556 19.946C90.8253 20.6269 88.2047 21.6928 85.7716 23.1119V51.5086C88.1143 50.2357 90.6072 49.2643 93.1913 48.6173C95.2317 48.0967 97.3175 47.7765 99.4195 47.6612H99.503C99.8546 47.6434 100.206 47.6332 100.568 47.6306V44.7216C97.8367 44.7567 95.1193 45.1178 92.4728 45.7972C91.4938 46.0515 90.5477 46.3261 89.6598 46.6313L88.6479 46.9746V24.8334L89.0805 24.6249C92.3817 23.0595 95.9522 22.1486 99.5966 21.9421C99.6269 21.9399 99.6573 21.9399 99.6876 21.9421C100.09 21.9218 100.495 21.9116 100.892 21.9116H101.327H101.347C101.557 21.9167 101.767 21.9218 101.977 21.9345Z" fill="#AFB1B8"/>
<path d="M109.111 24.9326C108.445 24.9326 107.788 24.9097 107.153 24.8614C106.394 24.8054 105.615 24.7139 104.876 24.5893C104.426 24.513 103.983 24.4215 103.553 24.3223V52.3935C105.374 52.8443 107.243 53.0647 109.118 53.0496C111.593 53.0395 114.057 52.7227 116.455 52.1061C119.185 51.4243 121.807 50.3585 124.241 48.9402V21.0496C121.899 22.3218 119.407 23.294 116.824 23.9434C114.303 24.5908 111.713 24.9231 109.111 24.9326ZM120.335 25.4183L121.347 25.0775V47.2263L120.914 47.4348C119.255 48.2243 117.522 48.8469 115.741 49.2937C113.578 49.8533 111.354 50.1412 109.121 50.1506C108.453 50.1506 107.79 50.1227 107.148 50.0667L106.455 50.0057V47.3178V27.2288L107.262 27.2822C107.848 27.3204 108.456 27.3382 109.116 27.3382C111.951 27.3281 114.775 26.966 117.522 26.26C118.466 26.0108 119.404 25.7311 120.335 25.4183Z" fill="#AFB1B8"/>
<path d="M87.7371 61.2123C87.5917 61.0614 87.4163 60.9429 87.2224 60.8645C87.0284 60.7861 86.8203 60.7495 86.6114 60.7571C86.3888 60.7541 86.1678 60.7956 85.9613 60.8791C85.7719 60.9546 85.5998 61.0679 85.4553 61.2123C85.3125 61.3571 85.2013 61.5303 85.129 61.7208C85.0497 61.9205 85.0101 62.1339 85.0126 62.3489V66.143C85.0036 66.4103 85.0546 66.6763 85.1619 66.9211C85.2514 67.1155 85.3807 67.2888 85.5413 67.4297C85.693 67.5573 85.871 67.6494 86.0625 67.6992C86.2469 67.7511 86.4376 67.7776 86.6291 67.7781C86.8404 67.7802 87.0495 67.735 87.2413 67.6458C87.4309 67.5629 87.6028 67.4437 87.7473 67.2949C87.8881 67.1475 88.0005 66.975 88.0786 66.7863C88.1597 66.595 88.201 66.3891 88.2001 66.1811V65.7564H87.2084V66.0947C87.2114 66.2101 87.1916 66.3251 87.1502 66.4329C87.1179 66.5136 87.0688 66.5865 87.006 66.6465C86.9446 66.6961 86.8742 66.7332 86.7986 66.7558C86.7316 66.7781 86.6617 66.7901 86.5912 66.7914C86.5026 66.8017 86.413 66.7883 86.3312 66.7526C86.2495 66.7169 86.1786 66.6601 86.1257 66.588C86.0322 66.4355 85.9864 66.2583 85.9942 66.0794V62.5422C85.988 62.3461 86.0297 62.1514 86.1156 61.9751C86.1671 61.8951 86.2399 61.8311 86.3258 61.7907C86.4117 61.7502 86.5071 61.7348 86.6013 61.7463C86.6868 61.7432 86.7717 61.7611 86.8488 61.7983C86.9259 61.8355 86.9929 61.8909 87.044 61.9599C87.155 62.1056 87.213 62.285 87.2084 62.4685V62.7965H88.19V62.41C88.1919 62.183 88.1507 61.9577 88.0685 61.7463C87.9953 61.5475 87.8825 61.3658 87.7371 61.2123Z" fill="#AFB1B8"/>
<path d="M93.6289 61.1692C93.3127 60.9022 92.9136 60.7547 92.5007 60.7522C92.2987 60.7531 92.0984 60.7892 91.9087 60.859C91.7161 60.928 91.5384 61.0333 91.3851 61.1692C91.2208 61.3169 91.0897 61.4981 91.0005 61.7007C90.9006 61.9325 90.8515 62.1831 90.8563 62.4356V66.0745C90.8495 66.3305 90.8987 66.5849 91.0005 66.8196C91.0903 67.0153 91.2215 67.1889 91.3851 67.3282C91.5367 67.4689 91.7147 67.5779 91.9087 67.6486C92.0984 67.7184 92.2987 67.7545 92.5007 67.7554C92.7027 67.755 92.9031 67.7188 93.0926 67.6486C93.29 67.5769 93.4719 67.4681 93.6289 67.3282C93.7871 67.1862 93.9145 67.0131 94.0033 66.8196C94.1051 66.5849 94.1544 66.3305 94.1475 66.0745V62.4356C94.1524 62.1831 94.1032 61.9325 94.0033 61.7007C93.9151 61.5002 93.7878 61.3195 93.6289 61.1692ZM93.166 66.0745C93.1743 66.1715 93.1609 66.2691 93.1268 66.3602C93.0926 66.4513 93.0386 66.5336 92.9687 66.6009C92.8377 66.7107 92.6725 66.7709 92.5019 66.7709C92.3313 66.7709 92.1662 66.7107 92.0352 66.6009C91.9652 66.5336 91.9112 66.4513 91.8771 66.3602C91.8429 66.2691 91.8295 66.1715 91.8379 66.0745V62.4356C91.8295 62.3386 91.8429 62.241 91.8771 62.1499C91.9112 62.0588 91.9652 61.9765 92.0352 61.9092C92.1662 61.7994 92.3313 61.7392 92.5019 61.7392C92.6725 61.7392 92.8377 61.7994 92.9687 61.9092C93.0386 61.9765 93.0926 62.0588 93.1268 62.1499C93.1609 62.241 93.1743 62.3386 93.166 62.4356V66.0745Z" fill="#AFB1B8"/>
<path d="M101.367 67.6993V60.8105H100.414L99.1614 64.4571H99.1437L97.8813 60.8105H96.9377V67.6993H97.9218V63.5086H97.9395L98.9033 66.4711H99.3941L100.366 63.5086H100.383V67.6993H101.367Z" fill="#AFB1B8"/>
<path d="M106.958 61.2938C106.807 61.1238 106.615 60.9944 106.402 60.9174C106.171 60.8425 105.93 60.8064 105.688 60.8106H104.226V67.6994H105.207V65.009H105.713C106.02 65.0229 106.324 64.9582 106.599 64.8208C106.822 64.6969 107.008 64.5151 107.138 64.2944C107.251 64.1112 107.328 63.9073 107.363 63.6943C107.401 63.4351 107.419 63.1732 107.416 62.9111C107.425 62.5803 107.393 62.2496 107.32 61.927C107.254 61.6886 107.13 61.4708 106.958 61.2938ZM106.452 63.3942C106.448 63.519 106.417 63.6413 106.361 63.7528C106.305 63.8587 106.216 63.9435 106.108 63.9944C105.963 64.0594 105.804 64.089 105.645 64.0808H105.197V61.7388H105.703C105.856 61.7313 106.008 61.761 106.146 61.8253C106.248 61.8835 106.328 61.9725 106.376 62.0795C106.43 62.2006 106.459 62.3311 106.462 62.4635C106.462 62.6085 106.462 62.7611 106.462 62.9213C106.462 63.0815 106.472 63.2467 106.462 63.3942H106.452Z" fill="#AFB1B8"/>
<path d="M111.608 60.8105H110.803L109.285 67.6993H110.267L110.555 66.2193H111.894L112.182 67.6993H113.163L111.608 60.8105ZM110.702 65.281L111.185 62.7838H111.203L111.684 65.281H110.702Z" fill="#AFB1B8"/>
<path d="M117.95 64.9606H117.932L116.45 60.8105H115.506V67.6993H116.488V63.5569H116.508L118.008 67.6993H118.931V60.8105H117.95V64.9606Z" fill="#AFB1B8"/>
<path d="M123.948 60.8105L123.158 63.5493H123.138L122.349 60.8105H121.309L122.657 64.7877V67.6993H123.639V64.7877L124.987 60.8105H123.948Z" fill="#AFB1B8"/>
<path d="M85 69.6447H85.4731V70.972H85.7943V69.6447H86.2649V69.3726H85V69.6447Z" fill="#AFB1B8"/>
<path d="M88.9767 69.3726L88.3569 70.972H88.6984L88.83 70.6084H89.4675L89.6041 70.972H89.9532L89.3182 69.3726H88.9767ZM88.9261 70.3389L89.1437 69.7464L89.3612 70.3389H88.9261Z" fill="#AFB1B8"/>
<path d="M92.9079 70.3821H93.2773V70.5881C93.1694 70.6746 93.0358 70.722 92.8978 70.7229C92.8333 70.7265 92.7689 70.7145 92.7099 70.688C92.6509 70.6614 92.5991 70.6211 92.5588 70.5703C92.474 70.4485 92.4322 70.3017 92.4399 70.1533C92.4399 69.7973 92.5942 69.6193 92.9003 69.6193C92.9809 69.6112 93.0617 69.6325 93.128 69.6791C93.1944 69.7257 93.2419 69.7947 93.2621 69.8735L93.5783 69.8125C93.51 69.4997 93.2849 69.3421 92.9003 69.3421C92.6947 69.3366 92.4947 69.4103 92.3413 69.5481C92.2607 69.6276 92.1983 69.7239 92.1586 69.8302C92.1188 69.9365 92.1026 70.0502 92.1111 70.1634C92.1017 70.3823 92.1749 70.5966 92.316 70.7636C92.3943 70.8444 92.4892 70.9071 92.594 70.9475C92.6988 70.9879 92.8111 71.0049 92.9231 70.9975C93.1734 71.0045 93.4165 70.9133 93.6011 70.7432V70.1126H92.9079V70.3821Z" fill="#AFB1B8"/>
<path d="M96.9226 69.3726H96.5988V70.972H97.7194V70.7H96.9226V69.3726Z" fill="#AFB1B8"/>
<path d="M100.317 69.3726H99.9937V70.972H100.317V69.3726Z" fill="#AFB1B8"/>
<path d="M103.636 70.4406L102.981 69.3726H102.668V70.972H102.969V69.9269L103.611 70.972H103.932V69.3726H103.636V70.4406Z" fill="#AFB1B8"/>
<path d="M106.637 70.2677H107.434V69.9956H106.637V69.6447H107.494V69.3726H106.313V70.972H107.527V70.7H106.637V70.2677Z" fill="#AFB1B8"/>
<path d="M113.912 70.0032H113.282V69.3726H112.961V70.972H113.282V70.2728H113.912V70.972H114.234V69.3726H113.912V70.0032Z" fill="#AFB1B8"/>
<path d="M116.93 70.2677H117.73V69.9956H116.93V69.6447H117.79V69.3726H116.609V70.972H117.821V70.7H116.93V70.2677Z" fill="#AFB1B8"/>
<path d="M121.023 70.2676C121.302 70.2244 121.443 70.0769 121.443 69.8226C121.451 69.7546 121.441 69.6856 121.413 69.623C121.386 69.5603 121.342 69.5063 121.286 69.4666C121.141 69.3938 120.98 69.3614 120.818 69.3725H120.14V70.972H120.462V70.3032H120.525C120.593 70.299 120.662 70.3112 120.725 70.3388C120.772 70.3678 120.811 70.4079 120.839 70.4558L121.188 70.9644H121.572L121.377 70.6516C121.291 70.4972 121.17 70.3656 121.023 70.2676ZM120.699 70.0464H120.462V69.6446H120.715C120.825 69.6357 120.936 69.6486 121.041 69.6827C121.064 69.7034 121.083 69.7291 121.095 69.7579C121.107 69.7867 121.113 69.8179 121.111 69.8492C121.11 69.8804 121.101 69.911 121.087 69.9385C121.072 69.966 121.051 69.9899 121.026 70.0082C120.92 70.0406 120.81 70.0535 120.699 70.0464Z" fill="#AFB1B8"/>
<path d="M124.11 70.2677H124.906V69.9956H124.11V69.6447H124.97V69.3726H123.786V70.972H125V70.7H124.11V70.2677Z" fill="#AFB1B8"/>
</svg>
